<?xml version="1.0" encoding="UTF-8"?>
<svg width="64" height="64" version="1.1" viewBox="0 0 38.784 38.784" xml:space="preserve" xmlns="http://www.w3.org/2000/svg">
<path d="m24.201 2.1281c-0.09284-0.0019-0.1859 0.013167-0.27578 0.044976l-15.95 5.5818c-0.26139 0.091728-0.45509 0.31414-0.51013 0.58588-0.053937 0.27173 0.020322 0.53519 0.21068 0.72554 0 0 0.068254 0.12143 0.38585 0.32786 1.0549 0.68679 2.5853 1.303 4.8326 1.4097l17.133-5.9961-1.6511-0.76934-16.052 5.6197-0.70779-0.33732 16.045-5.6162-1.2416-0.57878-16.041 5.615-0.70779-0.33732 16.027-5.6102-1.0072-0.47462c-0.01708-0.013702-0.03382-0.032433-0.05208-0.04616-0.12897-0.091727-0.28202-0.14123-0.43675-0.1444z" fill="#dbe2e3" fill-opacity=".74141"/><path d="m24.356 0.606c-0.18555-0.0041144-0.37183 0.024817-0.55156 0.087586l-16.774 5.8706c-0.62837 0.22014-1.0487 0.81451-1.0487 1.4795v26.263s1.1048 3.5952 6.9122 3.8715l17.81-6.2328c1.2567-0.44029 2.0985-1.6266 2.0985-2.959v-22.942c7.4e-5 -0.50795-0.2465-0.98475-0.66044-1.2783-0.41394-0.29353-0.94579-0.36858-1.425-0.20003l-17.823 6.2375c-2.2473-0.10662-3.7778-0.72288-4.8326-1.4097-0.3176-0.20642-0.38585-0.32786-0.38585-0.32786-0.19035-0.19035-0.26462-0.45381-0.21068-0.72554 0.055036-0.27173 0.24874-0.49415 0.51013-0.58588l15.95-5.5818c0.23966-0.084829 0.50617-0.047342 0.71252 0.099422 0.01826 0.013727 0.035001 0.032458 0.052079 0.04616l1.0072 0.47462-16.027 5.6102 0.70779 0.33732 16.115-5.641-0.63559-0.303v-0.90071c-0.072208-0.40015-0.28909-0.76165-0.6273-1.0001-0.25872-0.18419-0.56424-0.28312-0.87349-0.28998zm3.3579 3.0797-16.098 5.6351 0.70779 0.33732 16.095-5.6351-0.70424-0.33732z" fill="#08a"/><path d="m24.68 13.541c-2.6079-0.04788-5.7408 2.083-7.5797 4.8291-0.77744 1.1611-1.2043 2.2998-1.4002 3.4005-0.11393-0.07227-0.23014-0.14173-0.35034-0.20713-0.77316-0.42152-2.0738 1.1009-1.2925 1.5268 0.40705 0.22185 0.77775 0.48602 1.128 0.77289 0.10782 0.08827 0.21443 0.17817 0.31839 0.27104 0.09582 0.08558 0.19119 0.17031 0.28406 0.25921 0.13581 0.13002 0.36283 0.12799 0.59535 0.04498 0.28894-0.04617 0.59825-0.24943 0.79419-0.64861 0.0405-0.08244 0.08393-0.1625 0.12664-0.24382 0.19376-0.36976 0.40917-0.72616 0.64624-1.0712 0.39233-0.57094 0.84245-1.1119 1.3599-1.631 0.38638-0.38758 0.36522-0.96046 0.08995-1.1528-0.33046-0.23073-0.81503-0.01342-1.2013 0.37402-0.24924 0.24989-0.48359 0.51081-0.71016 0.77762 0.04832-0.17864 0.10374-0.35881 0.16925-0.54209 0.61626-1.7232 2.299-3.4603 3.9414-4.3947 2.7512-1.5648 4.9477-0.09948 5.6079 1.9032 0.7649 2.3201-0.38194 6.3312-3.5887 8.0768-1.9399 1.056-3.8071 0.83215-5.0433-0.09706-4e-3 0.0037-0.0091 7e-3 -0.01302 0.01065-0.0091-0.0168-0.02141-0.02969-0.03196-0.04498-0.04775-0.0677-0.10992-0.1203-0.18582-0.15505-0.19119-0.08782-0.45603-0.07105-0.72436 0.07693-0.45674 0.25211-0.76806 0.79134-0.68412 1.1848l0.01539 0.0722c0.01827 0.08629 0.05684 0.15665 0.10652 0.21542 0.02242 0.02626 0.04826 0.04825 0.07575 0.06865 0.02258 0.0167 0.04528 0.03334 0.07102 0.04616 1.25 0.92883 3.0378 1.2332 5.0255 0.73738 3.6494-0.91002 6.2681-4.7416 6.8317-8.0579 0.50674-2.9815-0.8439-5.5308-3.301-6.2435-0.34583-0.10029-0.70806-0.15176-1.0806-0.1586zm-1.9162 3.1614c-0.46884 0.01148-1.1256 0.493-1.1694 1.1469-0.08781 1.3088-0.23649 2.6354-0.28643 3.9331-9.5e-4 0.02527 2.34e-4 0.04771 0.0012 0.07101-0.04655 0.29496 0.06135 0.54591 0.40479 0.58943 0.96727 0.12276 1.9095 0.29654 2.8252 0.5267 0.89561 0.22506 1.7163-1.4545 0.82615-1.6783-0.78064-0.19617-1.5809-0.34875-2.3991-0.46634 0.06076-1.1821 0.1867-2.3842 0.26631-3.5721 0.02653-0.39496-0.1874-0.55726-0.4687-0.55037z" fill="#d5f6ff"/></svg>
